<?xml version="1.0" encoding="UTF-8" standalone="no"?>
<svg
   xmlns:dc="http://purl.org/dc/elements/1.1/"
   xmlns:cc="http://creativecommons.org/ns#"
   xmlns:rdf="http://www.w3.org/1999/02/22-rdf-syntax-ns#"
   xmlns:svg="http://www.w3.org/2000/svg"
   xmlns="http://www.w3.org/2000/svg"
   width="200mm"
   height="95.667mm"
   viewBox="0 0 200 95.667"
   version="1.1"
   id="svg8">
  <defs
     id="defs2">
    <rect
       x="14.210058"
       y="367.90579"
       width="299.7446"
       height="23.964626"
       id="rect1659" />
    <rect
       x="14.210058"
       y="348.61667"
       width="166.82948"
       height="19.764441"
       id="rect1653" />
    <rect
       x="220.67513"
       y="348.61667"
       width="161.97112"
       height="19.289124"
       id="rect1647" />
    <rect
       x="232.60146"
       y="351.76672"
       width="136.92548"
       height="10.885289"
       id="rect1641" />
    <rect
       x="494.07074"
       y="348.61667"
       width="77.120499"
       height="12.889522"
       id="rect1635" />
    <rect
       x="406.76608"
       y="351.76672"
       width="76.721169"
       height="16.139071"
       id="rect1629" />
    <rect
       x="399.16776"
       y="173.81526"
       width="183.60147"
       height="19.289124"
       id="rect1623" />
    <rect
       x="22.765566"
       y="173.69283"
       width="86.424828"
       height="16.863382"
       id="rect1556" />
    <rect
       x="8.8532753"
       y="332.63019"
       width="211.82185"
       height="15.986469"
       id="rect1538" />
    <rect
       x="207.03279"
       y="323.1709"
       width="151.95955"
       height="29.454596"
       id="rect1530" />
    <rect
       x="563.74817"
       y="327.87726"
       width="266.81848"
       height="46.839611"
       id="rect1524" />
    <rect
       x="492.6088"
       y="331.01224"
       width="101.93903"
       height="26.063957"
       id="rect1518" />
    <rect
       x="392.91565"
       y="333.76553"
       width="91.491188"
       height="18.581932"
       id="rect1512" />
    <rect
       x="23.174583"
       y="236.31548"
       width="139.3739"
       height="26.438608"
       id="rect1506" />
    <rect
       x="298.79422"
       y="168.58572"
       width="87.719406"
       height="113.30423"
       id="rect1500" />
    <rect
       x="397.02167"
       y="240.99992"
       width="68.302345"
       height="17.132696"
       id="rect1494" />
    <rect
       x="394.50888"
       y="206.96297"
       width="86.577225"
       height="15.990516"
       id="rect1488" />
    <rect
       x="62.517117"
       y="92.942116"
       width="85.995766"
       height="18.338354"
       id="rect887" />
    <rect
       x="47.276501"
       y="73.86953"
       width="121.14603"
       height="34.866417"
       id="rect881" />
    <rect
       id="rect900"
       height="12.410081"
       width="171.3773"
       y="161.33105"
       x="395.94067" />
    <rect
       id="rect894"
       height="12.017241"
       width="74.944649"
       y="158.96722"
       x="219.83572" />
    <rect
       id="rect859"
       height="13.851906"
       width="94.525887"
       y="156.60339"
       x="108.73595" />
    <rect
       x="145.01799"
       y="107.48393"
       width="450.40884"
       height="52.888916"
       id="rect1128" />
    <rect
       x="145.00272"
       y="113.37978"
       width="437.76651"
       height="60.435486"
       id="rect1108" />
    <rect
       x="108.73595"
       y="156.60339"
       width="94.525887"
       height="13.851906"
       id="rect859-1" />
    <rect
       x="108.73595"
       y="156.60339"
       width="94.525887"
       height="13.851906"
       id="rect872" />
    <rect
       id="rect1556-9"
       height="16.863382"
       width="86.424828"
       y="173.69283"
       x="22.765566" />
    <rect
       id="rect1569"
       height="16.863382"
       width="86.424828"
       y="173.69283"
       x="22.765566" />
    <rect
       id="rect1556-7"
       height="16.863382"
       width="86.424828"
       y="173.69283"
       x="22.765566" />
    <rect
       id="rect1569-9"
       height="16.863382"
       width="86.424828"
       y="173.69283"
       x="22.765566" />
    <rect
       id="rect1556-6"
       height="16.863382"
       width="86.424828"
       y="173.69283"
       x="22.765566" />
    <rect
       id="rect1569-5"
       height="16.863382"
       width="86.424828"
       y="173.69283"
       x="22.765566" />
  </defs>
  <metadata
     id="metadata5">
    <rdf:RDF>
      <cc:Work
         rdf:about="">
        <dc:format>image/svg+xml</dc:format>
        <dc:type
           rdf:resource="http://purl.org/dc/dcmitype/StillImage" />
        <dc:title></dc:title>
      </cc:Work>
    </rdf:RDF>
  </metadata>
  <g
     id="layer1"
     style="display:inline;opacity:1">
    <text
       xml:space="preserve"
       id="text1639"
       style="font-weight:bold;font-size:10.58329999999999949px;line-height:1.25;font-family:FreeSans;-inkscape-font-specification:'FreeSans, Bold';white-space:pre;shape-inside:url(#rect1641);"><tspan
         style="visibility:hidden"
         x="232.60156"
         y="372.4419"><tspan
           dx="0 2.8277354 4.7128925 4.712893"
           style="font-style:normal;font-variant:normal;font-weight:normal;font-stretch:normal;font-size:8.46667px;font-family:FreeSans;-inkscape-font-specification:'FreeSans, Normal';font-variant-ligatures:normal;font-variant-caps:normal;font-variant-numeric:normal;font-variant-east-asian:normal">(323</tspan></tspan></text>
    <g
       id="g1733"
       transform="matrix(0.33333449,0,0,0.33333449,-0.85761613,-35.662966)">
      <rect
         y="106.98853"
         x="2.5728395"
         height="287"
         width="600"
         id="rect38"
         style="fill:#004b87;fill-opacity:1;fill-rule:evenodd;stroke-width:0.264489" />
      <rect
         style="opacity:1;fill:#ffffff;fill-opacity:1;stroke-width:0.264583"
         id="rect879"
         width="192.82274"
         height="152.71561"
         x="14.210058"
         y="170.45531" />
      <rect
         y="170.98447"
         x="220.67513"
         height="152.71561"
         width="74.105247"
         id="rect879-7"
         style="opacity:1;fill:#ffffff;fill-opacity:1;stroke-width:0.164024" />
      <rect
         y="348.61667"
         x="14.210058"
         height="19.289124"
         width="192.82274"
         id="rect879-2"
         style="opacity:1;fill:#ffffff;fill-opacity:1;stroke-width:0.0940321" />
      <rect
         style="opacity:1;fill:#ffffff;fill-opacity:1;stroke-width:0.0861817"
         id="rect879-2-2"
         width="161.9711"
         height="19.289125"
         x="220.67513"
         y="348.61667" />
      <rect
         y="348.61667"
         x="394.78879"
         height="19.289127"
         width="88.698456"
         id="rect879-2-2-1"
         style="opacity:1;fill:#ffffff;fill-opacity:1;stroke-width:0.0637757" />
      <rect
         style="opacity:1;fill:#ffffff;fill-opacity:1;stroke-width:0.0637757"
         id="rect879-2-2-1-5"
         width="88.698456"
         height="19.289127"
         x="494.07074"
         y="348.61667" />
      <rect
         y="240.25372"
         x="494.07074"
         height="19.289127"
         width="88.698456"
         id="rect879-2-2-1-5-3"
         style="opacity:1;fill:#ffffff;fill-opacity:1;stroke-width:0.0637757" />
      <rect
         style="opacity:1;fill:#ffffff;fill-opacity:1;stroke-width:0.0637757"
         id="rect879-2-2-1-5-3-9"
         width="88.698456"
         height="19.289127"
         x="494.07074"
         y="206.14815" />
      <rect
         y="173.81526"
         x="399.16776"
         height="19.289127"
         width="183.60146"
         id="rect879-2-2-1-5-3-9-0"
         style="opacity:1;fill:#ffffff;fill-opacity:1;stroke-width:0.0917562" />
      <text
         transform="translate(6.8243762,5.1182819)"
         style="font-style:italic;font-variant:normal;font-weight:bold;font-stretch:normal;font-size:42.33330000000000126px;line-height:1.25;font-family:FreeSans;-inkscape-font-specification:'FreeSans, Bold Italic';font-variant-ligatures:normal;font-variant-caps:normal;font-variant-numeric:normal;font-variant-east-asian:normal;letter-spacing:0.79374999999999984px;white-space:pre;shape-inside:url(#rect1128);fill:#000000;fill-opacity:1;stroke:none;"
         id="text1126"
         xml:space="preserve"><tspan
           x="145.01758"
           y="146.64268"><tspan
             style="font-style:italic;font-variant:normal;font-weight:bold;font-stretch:normal;font-size:42.3333px;font-family:FreeSans;-inkscape-font-specification:'FreeSans, Bold Italic';font-variant-ligatures:normal;font-variant-caps:normal;font-variant-numeric:normal;font-variant-east-asian:normal;fill:#ffffff">COLLECTION TIMES</tspan></tspan></text>
      <text
         xml:space="preserve"
         id="text857"
         style="font-style:normal;font-weight:normal;font-size:10.58329999999999949px;line-height:1.25;font-family:sans-serif;white-space:pre;shape-inside:url(#rect859);fill:#000000;fill-opacity:1;stroke:none;"
         transform="translate(-91.007259,1.7110792)"><tspan
           x="108.73633"
           y="166.25898"><tspan
             style="font-style:normal;font-variant:normal;font-weight:bold;font-stretch:normal;font-size:9.525px;font-family:sans-serif;-inkscape-font-specification:'sans-serif, Bold';font-variant-ligatures:normal;font-variant-caps:normal;font-variant-numeric:normal;font-variant-east-asian:normal;fill:#ffffff">Monday - Friday</tspan></tspan></text>
      <text
         xml:space="preserve"
         id="text892"
         style="font-style:normal;font-weight:normal;font-size:10.58329999999999949px;line-height:1.25;font-family:sans-serif;white-space:pre;shape-inside:url(#rect894);fill:#000000;fill-opacity:1;stroke:none;"
         transform="translate(2.6458334,1.0583333)"><tspan
           x="219.83594"
           y="168.62226"><tspan
             style="font-style:normal;font-variant:normal;font-weight:bold;font-stretch:normal;font-size:9.525px;font-family:sans-serif;-inkscape-font-specification:'sans-serif, Bold';font-variant-ligatures:normal;font-variant-caps:normal;font-variant-numeric:normal;font-variant-east-asian:normal;fill:#ffffff">Saturday</tspan></tspan></text>
      <text
         xml:space="preserve"
         id="text898"
         style="font-style:normal;font-weight:normal;font-size:10.58329999999999949px;line-height:1.25;font-family:sans-serif;letter-spacing:0.79374999999999984px;word-spacing:-1.85207999999999995px;white-space:pre;shape-inside:url(#rect900);fill:#000000;fill-opacity:1;stroke:none;"
         transform="translate(2.1166667)"><tspan
           x="395.94141"
           y="170.9875"><tspan
             dx="0 0 0 0 1.8520799 -1.8520808 0 0 0 0 0 0 0 0 0 1.8520832 -1.8520827 0 1.8520832 -1.8520827 0 0 0 1.8520846 -1.8520827 0 0 0 1.852077 -1.8520751 0 1.8520923 -1.8520904"
             style="font-style:normal;font-variant:normal;font-weight:bold;font-stretch:normal;font-size:9.525px;font-family:FreeSans;-inkscape-font-specification:'FreeSans, Bold';font-variant-ligatures:normal;font-variant-caps:normal;font-variant-numeric:normal;font-variant-east-asian:normal;fill:#ffffff">Last Collection in this area is at:</tspan></tspan></text>
      <rect
         transform="matrix(1,0,-0.19923704,0.97995133,0,0)"
         y="124.3829"
         x="42.543388"
         height="21.533098"
         width="29.810675"
         id="rect1484"
         style="fill:#ffffff;fill-opacity:1;stroke-width:0.23097" />
      <path
         style="fill:#004b87;fill-opacity:1;stroke-width:0.682812"
         fill="#284e80"
         d="m 18.556859,122.52859 h 0.150221 l 0.251265,0.0492 0.300442,0.0505 0.800931,0.20076 1.102059,0.19937 0.601557,0.1516 0.651406,0.14953 0.701244,0.10032 0.700561,0.20075 0.75179,0.0997 0.751081,0.20074 2.404175,0.44998 0.75179,0.20075 0.801616,0.15022 0.699876,0.15021 0.75245,0.15022 0.700573,0.15022 0.701927,0.10032 0.600873,0.15091 0.60157,0.0997 0.50049,0.14954 0.450663,0.10105 0.400118,0.0492 0.350964,0.0505 0.251276,0.0505 0.14955,0.0498 h 0.09972 l 0.652079,0.15021 0.600872,0.10033 0.501185,0.15022 0.400118,0.0997 0.401498,0.1509 0.300443,0.10033 0.400118,0.20005 0.15022,0.10033 0.250593,0.24991 v 0.0505 l 0.05124,0.0498 v 0.0498 h 2.152227 l 0.201414,0.0505 h 0.20006 l 0.150221,0.0498 h 0.15022 l 0.150222,0.0505 0.400802,0.19938 0.0498,0.10105 0.350964,0.55033 0.100443,0.65073 -0.100443,0.8023 -0.249909,0.75109 -0.301115,0.7511 -0.301113,0.60155 -0.249921,0.40081 -0.09972,0.15022 -0.100324,0.0512 -0.25058,0.0983 -0.350976,0.1509 -0.501185,0.20007 -0.551024,0.20143 -0.700559,0.29975 -0.75179,0.30045 -0.851465,0.30111 -0.951838,0.40013 -1.002358,0.35096 -1.000319,0.40013 -2.204105,0.90267 -1.152592,0.45067 -1.152592,0.40148 -1.151212,0.49846 -1.201757,0.45202 -1.15258,0.40012 -1.102742,0.50187 -1.151211,0.4015 -1.052209,0.40013 -2.004057,0.80093 -0.901303,0.35096 -0.851477,0.30043 -0.751094,0.29977 -0.650711,0.25058 -0.551719,0.2506 -0.449967,0.1509 -0.350976,0.1509 -0.200744,0.0492 -0.05052,0.0492 h 25.896968 l 4.207489,-19.93447 H 18.556883 Z"
         id="path876" />
      <path
         style="fill:#004b87;fill-opacity:1;stroke-width:0.682812"
         fill="#284e80"
         d="m 37.942545,128.99004 -0.150904,0.0505 -1.001676,0.19938 h -0.250593 l -0.200742,0.0498 h -0.199387 l -0.301798,0.0512 -0.149538,0.0498 -0.100443,0.0498 -0.05052,0.10105 v 0.099 l 0.101044,0.10032 h 0.199387 l 0.200742,0.0498 h 0.501185 l 0.300431,-0.0498 h 0.300443 l 0.701928,-0.10032 h 0.350976 l 0.40013,-0.0505 0.350267,-0.0485 0.301811,-0.0512 0.349584,-0.0498 h 1.352663 l 0.149537,0.0498 0.101044,0.0512 0.09972,0.14953 v 0.20006 l -0.0498,0.20007 -0.0498,0.25059 -0.101044,0.30043 -0.149537,0.35097 -0.100444,0.35096 -0.0498,0.20007 0.09972,0.10033 0.100324,-0.0505 0.200755,-0.20076 0.09972,-0.14953 0.150222,-0.2506 0.150892,-0.30042 0.150221,-0.35097 0.149538,-0.29976 0.100323,-0.30112 0.0498,-0.25059 v -0.30044 l -0.09972,-0.25059 -0.150221,-0.15022 -0.20006,-0.15021 -0.250581,-0.10032 -0.301125,-0.0498 -0.349608,-0.0505 h -2.104405 l -0.0498,0.0505 h -0.05052 l -0.09972,0.0498 -0.101043,0.20073 -0.099,0.0498 -0.100444,0.10034 z"
         id="path878" />
      <path
         style="fill:#004b87;fill-opacity:1;stroke-width:0.682812"
         fill="#284e80"
         d="m 17.605706,127.03651 -3.306174,15.32638 0.150905,-0.0492 0.300442,-0.20006 0.500489,-0.20006 0.652079,-0.35098 0.750422,-0.35028 0.85215,-0.45065 1.001687,-0.45133 0.951836,-0.50119 1.001674,-0.45065 0.951166,-0.50118 0.951836,-0.45134 0.901303,-0.45066 0.751778,-0.40149 0.650723,-0.29976 0.501185,-0.24922 0.350964,-0.15091 0.500489,-0.25059 0.451348,-0.2506 0.550339,-0.25126 0.551035,-0.29976 0.501185,-0.25059 0.600873,-0.25059 0.551023,-0.30045 0.600873,-0.2492 0.601569,-0.30182 3.005049,-1.25159 1.352638,-0.45134 0.200072,-0.0505 0.200058,-0.0983 0.250605,-0.0512 0.901303,-0.30044 1.052893,-0.30044 0.350279,-0.0505 1.051525,-0.30043 0.601569,-0.0997 0.200046,-0.0505 0.150221,-0.0505 h 0.150906 l 0.149537,-0.0492 0.100323,-0.10032 h 0.05052 v -0.0512 l -0.101045,-0.19939 -0.150221,-0.0498 -0.200071,-0.0505 h -0.200046 l -0.299759,-0.0492 h -0.30181 l -0.350267,0.0492 -0.600885,0.0505 -0.651395,0.0997 -0.701255,0.14954 -0.751778,0.15159 -0.750398,0.20005 -0.801628,0.2506 -0.751766,0.2506 -0.800945,0.2499 -0.751094,0.3018 -0.752462,0.24923 -0.700548,0.25059 -0.650735,0.25059 -0.602229,0.30044 -0.500513,0.20006 -0.450651,0.20144 -0.350964,0.20006 -1.90299,-5.91111 h 12.121944 l 0.0492,-0.2499 -0.199388,-0.25127 -0.301125,-0.15022 -0.450641,-0.15023 -0.501197,-0.15021 -1.302789,-0.20006 -2.10306,-0.15023 z"
         id="path880" />
      <path
         fill="#ca4256"
         d="M 134.17932,132.86089 H 49.312721 l 0.121541,-1.2748 h 84.867978 z"
         id="path882"
         style="fill:#ffffff;stroke-width:0.682812" />
      <path
         d="m 53.169235,130.04224 -0.651407,-0.0505 -0.65071,-0.1502 -0.501174,-0.15023 -0.450663,-0.30044 -0.299758,-0.35028 -0.200743,-0.45202 -0.05052,-0.49981 0.05052,-0.60157 0.250581,-1.10205 0.20007,-1.00168 0.200744,-0.85215 0.15022,-0.70057 0.100324,-0.60087 0.09972,-0.45065 0.05052,-0.24991 0.0492,-0.10032 h 1.653093 l -0.05052,0.19937 -0.09972,0.50119 -0.200743,0.75109 -0.150221,0.85215 -0.200059,0.85215 -0.249909,1.25158 -0.05052,0.15022 -0.0492,0.40082 v 0.70193 l 0.09972,0.2499 0.200071,0.20007 0.249897,0.15021 0.350964,0.0997 0.400826,0.0498 0.450639,-0.0498 0.350977,-0.0498 0.350267,-0.15089 0.250593,-0.24992 0.200755,-0.2499 0.200755,-0.30181 0.300418,-0.80093 0.0492,-0.40081 0.150221,-0.60087 0.15159,-0.7511 0.15022,-0.80161 0.199376,-0.75246 0.101043,-0.65073 0.09972,-0.45134 0.05052,-0.14953 h 1.653105 l -0.300442,1.45234 -0.150222,0.75246 -0.100323,0.24991 v 0.0997 l -0.05052,0.30111 -0.15021,0.7511 -0.349608,1.45302 -0.05052,0.29976 -0.150221,0.3018 -0.101043,0.24991 -0.150222,0.24991 -0.199374,0.25059 -0.400814,0.40013 -0.251277,0.15091 -0.299746,0.15089 -0.250593,0.15022 -0.299758,0.0997 -0.301127,0.0505 -0.301114,0.0997 -0.700572,0.10104 z m 77.037495,-6.41159 h -2.35365 l -0.40013,0.0997 -0.29977,0.20075 -0.0505,0.0997 -0.0505,0.15089 v 0.20006 l 0.0505,0.20075 0.14955,0.20074 0.1509,0.24991 0.45065,0.45067 0.29975,0.20005 0.25059,0.20075 0.30113,0.25059 0.49981,0.50118 0.20143,0.2506 0.29976,0.60087 0.0492,0.29976 -0.0492,0.35096 -0.0997,0.35166 -0.15091,0.35027 -0.25059,0.30043 -0.35097,0.2506 -0.40013,0.19938 -0.50118,0.15022 -0.65072,0.10033 -0.70124,0.0498 h -2.55373 l 0.29977,-1.20175 h 2.7046 l 0.2506,-0.0505 0.20006,-0.0505 0.15092,-0.0997 0.1509,-0.20076 0.099,-0.19937 -0.0492,-0.4015 -0.29975,-0.40082 -0.5012,-0.40011 -0.50117,-0.45067 -0.54966,-0.5005 -0.45202,-0.5517 -0.29977,-0.55172 -0.0492,-0.65071 0.099,-0.35029 0.20143,-0.40013 0.20006,-0.30043 0.35096,-0.25059 0.45066,-0.20006 0.45065,-0.15023 0.60156,-0.10032 h 2.90469 z m -5.81072,0 h -3.75546 l -0.45203,1.95352 h 3.30754 l -0.25059,1.05154 h -3.30617 l -0.40151,2.0539 h 3.75685 l -0.25061,1.20174 h -5.40922 l 1.60324,-7.46313 h 5.41059 z m -6.51196,0 h -2.30314 l -1.35197,6.2607 h -1.65239 l 1.35196,-6.2607 h -2.35502 l 0.30113,-1.20243 h 6.26137 z m -11.51972,6.2607 0.65209,-1.20174 h 2.35364 l -0.65071,-4.75852 -3.30617,5.96026 h -1.65377 l 4.30784,-7.46313 h 1.95353 l 1.15259,7.46313 z m -0.30045,-6.2607 h -2.30447 l -1.35198,6.2607 h -1.65377 l 1.35196,-6.2607 h -2.352274 l 0.299764,-1.20243 h 6.26 z m -7.162684,0 h -2.30449 l -0.250592,0.0492 -0.200072,0.0505 -0.150881,0.10032 -0.200071,0.19939 v 0.35096 l 0.05052,0.20074 0.09972,0.20074 0.200058,0.24993 0.450652,0.45065 0.250593,0.20005 0.301114,0.20075 0.749737,0.75177 0.201432,0.2506 0.20006,0.30045 0.0997,0.30042 0.0505,0.29976 v 0.35097 l -0.10105,0.35165 -0.14954,0.35027 -0.301116,0.30044 -0.299757,0.2506 -0.449296,0.19937 -0.501174,0.15022 -0.601556,0.10033 -0.751106,0.0498 h -2.504534 l 0.249224,-1.20175 h 2.755139 l 0.250593,-0.0498 0.200058,-0.0505 0.150906,-0.0997 0.149537,-0.20075 0.05052,-0.19938 -0.05052,-0.4015 -0.299759,-0.4008 -0.450651,-0.40013 -0.499817,-0.45065 -0.552391,-0.5005 -0.450663,-0.55172 -0.299747,-0.55172 -0.05052,-0.65071 0.101043,-0.35029 0.149525,-0.40013 0.250605,-0.30042 0.350964,-0.2506 0.401486,-0.20006 0.499829,-0.15022 0.601545,-0.10032 h 2.904683 z m -15.127005,2.50387 -0.75245,3.75683 h 3.356696 l 0.40013,-0.0498 h 0.401498 l 0.699877,-0.20075 0.401485,-0.15021 0.350964,-0.20075 0.601557,-0.40012 0.6002,-0.60157 0.501174,-0.70056 0.200071,-0.4008 0.150905,-0.40014 0.09972,-0.45133 0.05052,-0.20008 0.0492,-0.30042 0.09972,-0.70058 -0.0492,-0.65139 -0.150904,-0.55104 -0.250593,-0.5005 -0.400118,-0.45134 -0.499829,-0.30042 -0.652079,-0.20008 -0.751094,-0.0505 h -3.656454 z m 5.459757,0 -0.05052,0.2506 -0.150894,0.30043 -0.09972,0.25059 -0.099,0.30045 -0.150905,0.19937 -0.200071,0.25128 -0.401474,0.4015 -0.501197,0.29974 -0.249225,0.10033 -0.299747,0.0997 -0.602936,0.10032 h -1.501492 l 0.499817,-2.55508 0.552392,-2.50386 h 2.153594 l 0.400117,0.15022 0.301127,0.20005 0.249225,0.29976 0.150893,0.30044 0.09972,0.40013 v 0.80162 l -0.09972,0.30043 z m -6.110467,-2.50387 h -3.707673 l -0.450651,1.95352 h 3.25702 l -0.201438,1.05154 h -3.304806 l -0.401498,2.0539 h 3.706304 l -0.20006,1.20174 h -5.409234 l 1.603244,-7.46313 h 5.358688 z m -6.461443,0 h -2.354325 l -1.352663,6.2607 h -1.60256 l 1.351968,-6.2607 h -2.353654 l 0.24992,-1.20243 h 6.262057 z m -8.76593,6.2607 h -1.603232 l 1.55271,-7.46313 h 1.652397 z m -3.205803,0 H 62.63641 l -1.853152,-5.55945 h -0.0498 l -1.151908,5.55945 h -1.452326 l 1.602547,-7.46313 h 2.103745 l 1.803986,5.61067 1.15258,-5.61067 h 1.5022 z m -13.724503,9.61671 h -0.200058 l -0.100443,-0.0492 h -0.300419 l -0.09972,-0.0492 h -0.09972 l -0.100323,-1.05221 h 0.400813 l 0.0498,0.0492 h 0.301127 l 0.400129,-0.0492 0.600874,-0.20007 0.200754,-0.20142 0.299759,-0.40149 0.100323,-0.1987 v -0.20143 l 0.0498,-0.25059 v -0.24923 l -0.0498,-0.20143 -0.100323,-0.14953 -0.299759,-0.20143 h -0.200754 l -0.199388,-0.0492 h -1.352638 l -1.352651,6.26137 h -1.653081 l 1.603915,-7.46448 h 3.556083 l 0.551036,0.0505 0.400813,0.20142 0.350268,0.24923 0.200755,0.35096 0.09972,0.35097 0.05052,0.40012 v 0.40149 l -0.05052,0.35098 -0.150221,0.50117 -0.250593,0.45066 -0.30043,0.40012 -0.40013,0.35098 -0.401498,0.25058 -1.00237,0.29976 z m 82.446738,-3.4557 h -3.806 l -0.4015,1.95352 h 3.30617 l -0.25058,1.10137 h -3.30482 l -0.40147,2.05389 h 3.75681 l -0.2506,1.1526 h -5.40922 l 1.60325,-7.4645 h 5.40923 z m -6.66152,0.10032 -0.20143,-0.0505 h -0.14953 l -0.40013,-0.099 -0.25196,-0.0505 h -0.24922 l -0.20144,-0.0505 h -0.29975 l -0.55103,0.0505 -0.50119,0.14954 -0.49981,0.20142 -0.45065,0.35097 -0.35097,0.35096 -0.35096,0.45067 -0.20007,0.55102 -0.20005,0.60018 -0.10105,0.60157 0.0505,0.55103 0.14953,0.45065 0.20142,0.35097 0.29976,0.30112 0.4015,0.25059 0.45065,0.14954 0.49983,0.0492 h 0.29974 l 0.30112,-0.0492 h 0.25059 l 0.50119,-0.0997 h 0.19869 l 0.25197,-0.0492 0.20006,-0.0505 -0.40149,1.25227 -0.20008,0.0492 h -0.25059 l -0.20005,0.0505 h -0.25059 l -0.20007,0.0492 h -1.15259 l -0.80162,-0.0997 -0.35096,-0.099 -0.35096,-0.1509 -0.29976,-0.1509 -0.29976,-0.20006 -0.25059,-0.20007 -0.25059,-0.25196 -0.15091,-0.29974 -0.14953,-0.35097 -0.15089,-0.29976 -0.0505,-0.40013 V 139.56 l 0.0505,-0.45065 0.0492,-0.50118 0.1509,-0.4493 0.1509,-0.50117 0.40013,-0.80163 0.25059,-0.35096 0.60156,-0.60156 0.35097,-0.25059 0.69989,-0.40013 0.80161,-0.30112 0.40149,-0.0997 0.40013,-0.0492 0.45066,-0.0492 h 1.0522 l 0.20007,0.0492 h 0.20143 l 0.20007,0.0492 h 0.20005 l 0.20007,0.0505 z m -8.26406,6.16101 h -1.65377 l 1.60325,-7.4645 h 1.65238 z m -5.31092,0 h -1.95351 l -1.10138,-7.4645 h 1.65378 l 0.75109,6.01214 3.30617,-6.01214 h 1.60323 z m -6.06064,-3.20581 1.20312,3.20581 h -1.80466 l -1.35198,-4.05658 h 0.95321 l 0.29976,-0.0505 0.29976,-0.0997 0.25059,-0.1509 0.20006,-0.14954 0.20006,-0.20143 0.0997,-0.24922 0.10104,-0.29976 0.0492,-0.20143 v -0.20006 l -0.0997,-0.30113 -0.0997,-0.0997 -0.20006,-0.0997 -0.50118,-0.0997 h -1.50288 l -1.35195,6.26138 h -1.65243 l 1.60326,-7.4645 h 3.4557 l 0.49983,0.0505 0.45201,0.0997 0.35097,0.15092 0.2506,0.20005 0.20006,0.2506 0.15089,0.35095 0.0492,0.40013 v 0.40013 l -0.0492,0.50119 -0.15089,0.45202 -0.20006,0.40013 -0.2506,0.29975 -0.30112,0.29976 -0.40012,0.20142 -0.35098,0.1509 z m -4.75713,-3.05557 h -3.758194 l -0.40013,1.95352 h 3.255654 l -0.20007,1.10137 h -3.306164 l -0.400139,2.0539 h 3.756823 l -0.25057,1.15259 h -5.459776 l 1.603243,-7.4645 h 5.409233 z m -6.813772,0 h -2.103061 l -0.501173,0.0997 -0.200071,0.0505 -0.09972,0.0997 -0.150893,0.0997 -0.09972,0.20008 v 0.25057 l 0.05052,0.20145 0.09972,0.19868 0.200071,0.20145 0.200071,0.25057 0.250581,0.19871 0.250592,0.25196 0.299758,0.20006 0.250593,0.24922 0.299746,0.20143 0.201427,0.29976 0.200072,0.25059 0.200058,0.29975 0.101043,0.25059 0.04776,0.35098 v 0.29975 l -0.099,0.4015 -0.150905,0.29974 -0.601557,0.60156 -0.400118,0.20006 -0.552403,0.15091 -0.600189,0.0997 h -3.255652 l 0.250593,-1.1526 h 2.753783 l 0.250592,-0.0492 0.200059,-0.10104 0.150917,-0.0997 0.149526,-0.14954 0.09972,-0.20143 -0.09972,-0.40013 -0.299759,-0.40149 -0.450651,-0.44929 -0.499817,-0.45202 -0.552392,-0.45065 -0.450651,-0.55103 -0.299759,-0.60157 -0.05052,-0.60018 0.09972,-0.4015 0.150906,-0.35097 0.250592,-0.29974 0.350964,-0.25059 0.40013,-0.20007 0.501173,-0.1509 0.601569,-0.0997 0.699876,-0.0505 h 2.2048 z m -8.914785,6.26138 h -5.059638 l 1.553406,-7.4645 h 1.702931 l -1.353335,6.31191 h 3.405861 z m -10.720137,0 0.650722,-1.15259 h 2.353653 l -0.699876,-4.80904 -3.255652,5.96095 h -1.653081 l 4.258011,-7.4645 h 2.003361 l 1.15258,7.4645 h -4.809718 z m -0.299746,-6.26138 h -2.354338 l -1.35265,6.26138 h -1.653081 l 1.353322,-6.26138 h -2.304476 l 0.251266,-1.20312 h 6.260699 z m -7.1627,0 h -2.104404 l -0.500513,0.0997 -0.150222,0.0505 -0.150221,0.0997 -0.199375,0.20008 -0.05052,0.0997 v 0.25057 l 0.05052,0.20145 0.299746,0.40013 0.199388,0.25057 0.250592,0.19871 0.249909,0.25196 0.301114,0.20006 0.300442,0.24922 0.249909,0.20143 0.200743,0.29976 0.250593,0.25059 0.15022,0.29975 0.100325,0.25059 0.09972,0.35098 -0.0498,0.29975 -0.100323,0.4015 -0.150222,0.29974 -0.24992,0.30112 -0.301103,0.29975 -0.450663,0.20007 -0.55034,0.1509 -0.601568,0.0997 h -3.205106 l 0.200058,-1.15259 h 2.805673 l 0.199375,-0.0492 0.400814,-0.20143 0.09972,-0.14954 0.100323,-0.20142 -0.05052,-0.40013 -0.300431,-0.4015 -0.449967,-0.44928 -0.551719,-0.45202 -0.501185,-0.45067 -0.450651,-0.55102 -0.300443,-0.60156 -0.100443,-0.60019 0.100443,-0.4015 0.199374,-0.35096 0.252645,-0.29565 0.299759,-0.2506 0.400802,-0.20006 0.550363,-0.1509 0.600861,-0.0997 0.650722,-0.0505 h 2.204788 z m -13.925245,2.5537 -0.101043,0.80299 0.150893,1.05085 0.301127,0.60156 0.199387,0.29976 0.451323,0.45065 0.299759,0.20006 0.300442,0.1509 0.350964,0.15091 0.40013,0.0997 0.400813,0.0492 h 0.85215 l 0.800931,-0.0997 0.40013,-0.099 0.400802,-0.15091 0.350976,-0.1509 0.300443,-0.20007 0.350952,-0.20005 0.300443,-0.25197 0.249908,-0.29975 0.301114,-0.29975 0.199387,-0.35098 0.400814,-0.80161 0.150221,-0.45065 0.09972,-0.50119 0.100323,-0.40013 v -0.75109 l -0.05052,-0.40012 -0.0498,-0.35096 -0.300431,-0.60292 -0.398078,-0.49914 -0.251276,-0.20007 -0.30043,-0.20006 -0.300443,-0.15091 -0.400814,-0.1509 -0.350964,-0.0997 -0.40013,-0.0492 h -0.852149 l -0.800932,0.099 -0.40013,0.0997 -0.400802,0.15227 -0.350976,0.14954 -0.299757,0.20006 -0.350953,0.2506 -0.300442,0.20005 -0.300443,0.30113 -0.25058,0.35097 -0.250593,0.29974 -0.200071,0.40013 -0.150221,0.4015 -0.150209,0.50118 z m 6.260701,0 -0.150221,0.60157 -0.249909,0.55103 -0.251277,0.45065 -0.349596,0.35097 -0.400802,0.3011 -0.451348,0.2506 -0.450663,0.14954 -0.551707,0.0492 -0.551707,-0.0492 -0.40013,-0.20006 -0.350963,-0.2506 -0.249897,-0.35096 -0.150905,-0.35096 -0.09972,-0.49981 v -0.5012 l 0.09972,-0.50118 0.150905,-0.60019 0.249897,-0.55103 0.250592,-0.45065 0.350964,-0.35097 0.40013,-0.35096 0.451335,-0.20143 0.450652,-0.14954 0.551035,-0.0505 0.501173,0.10104 0.450664,0.099 0.350964,0.30111 0.249909,0.30113 0.150221,0.40013 0.100323,0.44928 v 0.50119 z"
         id="path884"
         style="fill:#ffffff;stroke-width:0.682812" />
      <text
         transform="translate(3.8834111,1.8274876)"
         style="font-style:normal;font-variant:normal;font-weight:bold;font-stretch:normal;font-size:10.58329999999999949px;line-height:1.25;font-family:FreeSans;-inkscape-font-specification:'FreeSans, Bold';font-variant-ligatures:normal;font-variant-caps:normal;font-variant-numeric:normal;font-variant-east-asian:normal;white-space:pre;shape-inside:url(#rect1488);fill:#000000;fill-opacity:1;stroke:none;"
         id="text1486"
         xml:space="preserve"><tspan
           x="394.50977"
           y="216.75244"><tspan
             style="font-style:normal;font-variant:normal;font-weight:bold;font-stretch:normal;font-size:10.5833px;font-family:FreeSans;-inkscape-font-specification:'FreeSans, Bold';font-variant-ligatures:normal;font-variant-caps:normal;font-variant-numeric:normal;font-variant-east-asian:normal;fill:#ffffff">Monday-Friday</tspan></tspan></text>
      <text
         transform="translate(1.5990516,1.1421797)"
         style="font-style:normal;font-weight:normal;font-size:10.58329999999999949px;line-height:1.25;font-family:sans-serif;white-space:pre;shape-inside:url(#rect1494);fill:#000000;fill-opacity:1;stroke:none;"
         id="text1492"
         xml:space="preserve"><tspan
           x="397.02148"
           y="250.78955"><tspan
             style="font-style:normal;font-variant:normal;font-weight:bold;font-stretch:normal;font-size:10.5833px;font-family:FreeSans;-inkscape-font-specification:'FreeSans, Bold';font-variant-ligatures:normal;font-variant-caps:normal;font-variant-numeric:normal;font-variant-east-asian:normal;fill:#ffffff">Saturday</tspan></tspan></text>
      <text
         transform="translate(5.2540267,2.2843594)"
         style="font-style:normal;font-weight:normal;font-size:10.58329999999999949px;line-height:1.22;font-family:sans-serif;letter-spacing:0.15875000000000000px;white-space:pre;shape-inside:url(#rect1500);fill:#000000;fill-opacity:1;stroke:none;"
         id="text1498"
         xml:space="preserve"><tspan
           x="298.79492"
           y="178.21674"><tspan
             dx="0 0 0 0 0 0 0 0 0 0 -0.15875 0.15875059"
             style="font-style:normal;font-variant:normal;font-weight:bold;font-stretch:normal;font-size:10.5833px;font-family:FreeSans;-inkscape-font-specification:'FreeSans, Bold';font-variant-ligatures:normal;font-variant-caps:normal;font-variant-numeric:normal;font-variant-east-asian:normal;fill:#ffffff">For specific
</tspan></tspan><tspan
           x="298.79492"
           y="191.26246"><tspan
             style="font-style:normal;font-variant:normal;font-weight:bold;font-stretch:normal;font-size:10.5833px;font-family:FreeSans;-inkscape-font-specification:'FreeSans, Bold';font-variant-ligatures:normal;font-variant-caps:normal;font-variant-numeric:normal;font-variant-east-asian:normal;fill:#ffffff">deposit and 
</tspan></tspan><tspan
           x="298.79492"
           y="204.30817"><tspan
             style="font-style:normal;font-variant:normal;font-weight:bold;font-stretch:normal;font-size:10.5833px;font-family:FreeSans;-inkscape-font-specification:'FreeSans, Bold';font-variant-ligatures:normal;font-variant-caps:normal;font-variant-numeric:normal;font-variant-east-asian:normal;fill:#ffffff">delivery
</tspan></tspan><tspan
           x="298.79492"
           y="217.35389"><tspan
             style="font-style:normal;font-variant:normal;font-weight:bold;font-stretch:normal;font-size:10.5833px;font-family:FreeSans;-inkscape-font-specification:'FreeSans, Bold';font-variant-ligatures:normal;font-variant-caps:normal;font-variant-numeric:normal;font-variant-east-asian:normal;fill:#ffffff">information,
</tspan></tspan><tspan
           x="298.79492"
           y="230.3996"><tspan
             style="font-style:normal;font-variant:normal;font-weight:bold;font-stretch:normal;font-size:10.5833px;font-family:FreeSans;-inkscape-font-specification:'FreeSans, Bold';font-variant-ligatures:normal;font-variant-caps:normal;font-variant-numeric:normal;font-variant-east-asian:normal;fill:#ffffff">visit
</tspan></tspan><tspan
           x="298.79492"
           y="243.44532"><tspan
             style="font-style:normal;font-variant:normal;font-weight:bold;font-stretch:normal;font-size:10.5833px;font-family:FreeSans;-inkscape-font-specification:'FreeSans, Bold';font-variant-ligatures:normal;font-variant-caps:normal;font-variant-numeric:normal;font-variant-east-asian:normal;fill:#ffffff">usps.com
</tspan></tspan><tspan
           x="298.79492"
           y="256.49103"><tspan
             style="font-style:normal;font-variant:normal;font-weight:bold;font-stretch:normal;font-size:10.5833px;font-family:FreeSans;-inkscape-font-specification:'FreeSans, Bold';font-variant-ligatures:normal;font-variant-caps:normal;font-variant-numeric:normal;font-variant-east-asian:normal;fill:#ffffff">or call
</tspan></tspan><tspan
           x="298.79492"
           y="269.53675"><tspan
             style="font-style:normal;font-variant:normal;font-weight:bold;font-stretch:normal;font-size:10.5833px;font-family:FreeSans;-inkscape-font-specification:'FreeSans, Bold';font-variant-ligatures:normal;font-variant-caps:normal;font-variant-numeric:normal;font-variant-east-asian:normal;fill:#ffffff">800-222-1811</tspan></tspan></text>
      <text
         transform="translate(2.284818,-6.8544541)"
         style="font-style:normal;font-variant:normal;font-weight:normal;font-stretch:normal;font-size:8.81944000000000017px;line-height:1.05;font-family:sans-serif;-inkscape-font-specification:'sans-serif, Normal';font-variant-ligatures:normal;font-variant-caps:normal;font-variant-numeric:normal;font-variant-east-asian:normal;letter-spacing:0.47625000000000001px;white-space:pre;shape-inside:url(#rect1506);fill:#000000;fill-opacity:1;stroke:none;"
         id="text1504"
         xml:space="preserve"><tspan
           x="23.173828"
           y="243.59244"><tspan
             style="font-style:normal;font-variant:normal;font-weight:normal;font-stretch:normal;font-size:8.81944px;font-family:FreeSans;-inkscape-font-specification:'FreeSans, Normal';font-variant-ligatures:normal;font-variant-caps:normal;font-variant-numeric:normal;font-variant-east-asian:normal">LOCATION OF THIS BOX
</tspan></tspan><tspan
           x="23.173828"
           y="252.96459"><tspan
             style="font-style:normal;font-variant:normal;font-weight:normal;font-stretch:normal;font-size:8.81944px;font-family:FreeSans;-inkscape-font-specification:'FreeSans, Normal';font-variant-ligatures:normal;font-variant-caps:normal;font-variant-numeric:normal;font-variant-east-asian:normal">609 PARKLAND CIR SE</tspan></tspan></text>
      <text
         transform="translate(4.1135573,1.6977811)"
         style="font-style:normal;font-weight:normal;font-size:10.58329999999999949px;line-height:1.25;font-family:sans-serif;white-space:pre;shape-inside:url(#rect1512);fill:#ffffff;fill-opacity:1;stroke:none;"
         id="text1510"
         xml:space="preserve"><tspan
           x="392.91602"
           y="343.55518"><tspan
             style="font-style:normal;font-variant:normal;font-weight:bold;font-stretch:normal;font-size:10.5833px;font-family:FreeSans;-inkscape-font-specification:'FreeSans, Bold';font-variant-ligatures:normal;font-variant-caps:normal;font-variant-numeric:normal;font-variant-east-asian:normal;fill:#ffffff">Location ID No.:</tspan></tspan></text>
      <text
         transform="translate(2.0271966,4.4516873)"
         style="font-style:normal;font-variant:normal;font-weight:bold;font-stretch:normal;font-size:10.58329999999999949px;line-height:1.25;font-family:FreeSans;-inkscape-font-specification:'FreeSans, Bold';font-variant-ligatures:normal;font-variant-caps:normal;font-variant-numeric:normal;font-variant-east-asian:normal;letter-spacing:-0.13229199999999999px;white-space:pre;shape-inside:url(#rect1518);fill:#ffffff;fill-opacity:1;stroke:none;"
         id="text1516"
         xml:space="preserve"><tspan
           x="492.60938"
           y="340.80127"><tspan
             style="font-style:normal;font-variant:normal;font-weight:bold;font-stretch:normal;font-size:10.5833px;font-family:FreeSans;-inkscape-font-specification:'FreeSans, Bold';font-variant-ligatures:normal;font-variant-caps:normal;font-variant-numeric:normal;font-variant-east-asian:normal;fill:#ffffff">Date label printed:</tspan></tspan></text>
      <text
         transform="translate(-259.81987,-42.128335)"
         style="font-weight:bold;font-size:10.58329999999999949px;line-height:1.25;font-family:FreeSans;-inkscape-font-specification:'FreeSans, Bold';letter-spacing:0.23812500000000000px;white-space:pre;shape-inside:url(#rect1524);"
         id="text1522"
         xml:space="preserve"><tspan
           x="563.74805"
           y="337.66651"><tspan
             style="font-style:normal;font-variant:normal;font-weight:bold;font-stretch:normal;font-size:10.5833px;font-family:FreeSans;-inkscape-font-specification:'FreeSans, Bold';font-variant-ligatures:normal;font-variant-caps:normal;font-variant-numeric:normal;font-variant-east-asian:normal;fill:#ffffff">Normal collection times may not apply on the 
</tspan></tspan><tspan
           x="563.74805"
           y="350.89563"><tspan
             style="font-style:normal;font-variant:normal;font-weight:bold;font-stretch:normal;font-size:10.5833px;font-family:FreeSans;-inkscape-font-specification:'FreeSans, Bold';font-variant-ligatures:normal;font-variant-caps:normal;font-variant-numeric:normal;font-variant-east-asian:normal;fill:#ffffff">day before a holiday. Always check with your 
</tspan></tspan><tspan
           x="563.74805"
           y="364.12476"><tspan
             style="font-style:normal;font-variant:normal;font-weight:bold;font-stretch:normal;font-size:10.5833px;font-family:FreeSans;-inkscape-font-specification:'FreeSans, Bold';font-variant-ligatures:normal;font-variant-caps:normal;font-variant-numeric:normal;font-variant-east-asian:normal;fill:#ffffff">local Postmaster to verify collection times.</tspan></tspan></text>
      <text
         transform="translate(14.007206,12.291531)"
         style="font-weight:bold;font-size:10.58329999999999949px;line-height:1.25;font-family:FreeSans;-inkscape-font-specification:'FreeSans, Bold';letter-spacing:0.15875000000000000px;white-space:pre;shape-inside:url(#rect1530);"
         id="text1528"
         xml:space="preserve"><tspan
           x="207.0332"
           y="332.96143"><tspan
             style="fill:#ffffff">For local information call:</tspan></tspan></text>
      <text
         transform="translate(3.7942609,2.9510918)"
         style="font-weight:bold;font-size:10.58329999999999949px;line-height:1.25;font-family:FreeSans;-inkscape-font-specification:'FreeSans, Bold';white-space:pre;shape-inside:url(#rect1538);"
         id="text1536"
         xml:space="preserve"><tspan
           x="8.8535156"
           y="342.42041"><tspan
             style="fill:#ffffff">Location of Priority Mail Express</tspan><tspan
             style="font-size:4.93889px;baseline-shift:super">TM</tspan><tspan
             style="fill:#ffffff"> Drop:</tspan></tspan></text>
      <text
         transform="translate(-0.84316908,-0.84316908)"
         style="font-weight:bold;font-size:10.58329999999999949px;line-height:1.25;font-family:FreeSans;-inkscape-font-specification:'FreeSans, Bold';white-space:pre;shape-inside:url(#rect1556);"
         id="text1554"
         xml:space="preserve"><tspan
           x="22.765625"
           y="183.48291"><tspan
             style="font-style:normal;font-variant:normal;font-weight:normal;font-stretch:normal;font-size:8.81944px;font-family:FreeSans;-inkscape-font-specification:'FreeSans, Normal';font-variant-ligatures:normal;font-variant-caps:normal;font-variant-numeric:normal;font-variant-east-asian:normal">10:00 AM</tspan></tspan></text>
      <text
         xml:space="preserve"
         id="text1554-9"
         style="font-style:normal;font-variant:normal;font-weight:bold;font-stretch:normal;font-size:8.81944000000000017px;line-height:1.25;font-family:FreeSans;-inkscape-font-specification:'FreeSans, Bold';font-variant-ligatures:normal;font-variant-caps:normal;font-variant-numeric:normal;font-variant-east-asian:normal;white-space:pre;shape-inside:url(#rect1556-9);display:inline;opacity:1;"
         transform="translate(203.5809,-0.84316908)"><tspan
           x="22.765625"
           y="181.85134"><tspan
             style="font-style:normal;font-variant:normal;font-weight:bold;font-stretch:normal;font-size:8.81944px;font-family:FreeSans;-inkscape-font-specification:'FreeSans, Bold';font-variant-ligatures:normal;font-variant-caps:normal;font-variant-numeric:normal;font-variant-east-asian:normal">10:00 AM</tspan></tspan></text>
      <text
         xml:space="preserve"
         id="text1554-0"
         style="font-style:normal;font-variant:normal;font-weight:bold;font-stretch:normal;font-size:8.81944000000000017px;line-height:1.25;font-family:FreeSans;-inkscape-font-specification:'FreeSans, Bold';font-variant-ligatures:normal;font-variant-caps:normal;font-variant-numeric:normal;font-variant-east-asian:normal;white-space:pre;shape-inside:url(#rect1556-7);display:inline;opacity:1;fill:#000000;"
         transform="translate(513.02396,34.216882)"><tspan
           x="22.765625"
           y="181.85134"><tspan
             style="font-style:normal;font-variant:normal;font-weight:bold;font-stretch:normal;font-size:8.81944px;font-family:FreeSans;-inkscape-font-specification:'FreeSans, Bold';font-variant-ligatures:normal;font-variant-caps:normal;font-variant-numeric:normal;font-variant-east-asian:normal;fill:#000000">7:00 PM</tspan></tspan></text>
      <text
         xml:space="preserve"
         id="text1554-1"
         style="font-style:normal;font-variant:normal;font-weight:bold;font-stretch:normal;font-size:8.81944000000000017px;line-height:1.25;font-family:FreeSans;-inkscape-font-specification:'FreeSans, Bold';font-variant-ligatures:normal;font-variant-caps:normal;font-variant-numeric:normal;font-variant-east-asian:normal;white-space:pre;shape-inside:url(#rect1556-6);display:inline;opacity:1;fill:#000000;"
         transform="translate(511.7592,69.629983)"><tspan
           x="22.765625"
           y="181.85134"><tspan
             style="font-style:normal;font-variant:normal;font-weight:bold;font-stretch:normal;font-size:8.81944px;font-family:FreeSans;-inkscape-font-specification:'FreeSans, Bold';font-variant-ligatures:normal;font-variant-caps:normal;font-variant-numeric:normal;font-variant-east-asian:normal;fill:#000000">6:00 PM</tspan></tspan></text>
      <text
         transform="translate(10.539614,2.5295072)"
         style="font-weight:bold;font-size:10.58329999999999949px;line-height:1.25;font-family:FreeSans;-inkscape-font-specification:'FreeSans, Bold';white-space:pre;shape-inside:url(#rect1623);"
         id="text1621"
         xml:space="preserve"><tspan
           x="399.16797"
           y="183.60401"><tspan
             style="font-style:normal;font-variant:normal;font-weight:normal;font-stretch:normal;font-size:8.81944px;font-family:FreeSans;-inkscape-font-specification:'FreeSans, Normal';font-variant-ligatures:normal;font-variant-caps:normal;font-variant-numeric:normal;font-variant-east-asian:normal">54321 BROADWAY NE </tspan></tspan></text>
      <text
         style="font-weight:bold;font-size:10.58329999999999949px;line-height:1.25;font-family:FreeSans;-inkscape-font-specification:'FreeSans, Bold';white-space:pre;shape-inside:url(#rect1629);"
         id="text1627"
         xml:space="preserve"><tspan
           x="406.76562"
           y="361.55713"><tspan
             style="font-style:normal;font-variant:normal;font-weight:normal;font-stretch:normal;font-size:8.81944px;font-family:FreeSans;-inkscape-font-specification:'FreeSans, Normal';font-variant-ligatures:normal;font-variant-caps:normal;font-variant-numeric:normal;font-variant-east-asian:normal">87108000012</tspan></tspan></text>
      <text
         transform="translate(22.343489,2.2916399)"
         style="font-weight:bold;font-size:10.58329999999999949px;line-height:1.25;font-family:FreeSans;-inkscape-font-specification:'FreeSans, Bold';white-space:pre;shape-inside:url(#rect1635);"
         id="text1633"
         xml:space="preserve"><tspan
           x="494.07031"
           y="358.40674"><tspan
             style="font-style:normal;font-variant:normal;font-weight:normal;font-stretch:normal;font-size:8.81944px;font-family:FreeSans;-inkscape-font-specification:'FreeSans, Normal';font-variant-ligatures:normal;font-variant-caps:normal;font-variant-numeric:normal;font-variant-east-asian:normal">01/23/20</tspan></tspan></text>
      <text
         transform="translate(42.968248,2.8645498)"
         style="font-weight:bold;font-size:10.58329999999999949px;line-height:1.25;font-family:FreeSans;-inkscape-font-specification:'FreeSans, Bold';white-space:pre;shape-inside:url(#rect1647);"
         id="text1645"
         xml:space="preserve"><tspan
           x="220.67578"
           y="358.40674"><tspan
             style="font-style:normal;font-variant:normal;font-weight:normal;font-stretch:normal;font-size:8.81944px;font-family:FreeSans;-inkscape-font-specification:'FreeSans, Normal';font-variant-ligatures:normal;font-variant-caps:normal;font-variant-numeric:normal;font-variant-east-asian:normal">(323) 555-1234</tspan></tspan></text>
      <text
         transform="translate(17.760209,2.2916399)"
         style="font-weight:bold;font-size:10.58329999999999949px;line-height:1.25;font-family:FreeSans;-inkscape-font-specification:'FreeSans, Bold';white-space:pre;shape-inside:url(#rect1653);"
         id="text1651"
         xml:space="preserve"><tspan
           x="14.210938"
           y="358.40674"><tspan
             style="font-style:normal;font-variant:normal;font-weight:normal;font-stretch:normal;font-size:8.81944px;font-family:FreeSans;-inkscape-font-specification:'FreeSans, Normal';font-variant-ligatures:normal;font-variant-caps:normal;font-variant-numeric:normal;font-variant-east-asian:normal">42 ELM DR SE</tspan></tspan></text>
      <text
         transform="translate(0,6.8749196)"
         style="font-weight:bold;font-size:10.58329999999999949px;line-height:1.25;font-family:FreeSans;-inkscape-font-specification:'FreeSans, Bold';white-space:pre;shape-inside:url(#rect1659);fill:#ffffff;"
         id="text1657"
         xml:space="preserve"><tspan
           x="14.210938"
           y="377.6958"><tspan
             style="font-style:normal;font-variant:normal;font-weight:bold;font-stretch:normal;font-size:7.76111px;font-family:FreeSans;-inkscape-font-specification:'FreeSans, Bold';font-variant-ligatures:normal;font-variant-caps:normal;font-variant-numeric:normal;font-variant-east-asian:normal;fill:#ffffff">Tampering with this box, lock or content is punishable by fine or imprisonment</tspan></tspan></text>
      <g
         transform="matrix(1.3390574,0,0,1.2766998,-136.52507,-92.761827)"
         id="g1309">
        <g
           style="fill:none;stroke:#ff0000;stroke-width:2;stroke-linecap:round;stroke-linejoin:round;stroke-opacity:1"
           id="g1302"
           transform="matrix(-0.64176014,-1.4762788,1.4762788,-0.64176014,408.72167,354.42751)">
          <polyline
             id="polyline1291"
             points="15 18 9 12 15 6"
             style="stroke:#ff0000;stroke-opacity:1" />
        </g>
        <path
           style="fill:none;stroke:#ff0000;stroke-width:3.74999;stroke-linecap:round;stroke-linejoin:miter;stroke-miterlimit:4;stroke-dasharray:none;stroke-opacity:1"
           d="M 419.97261,331.85239 404.37345,303.50407"
           id="path1304" />
      </g>
    </g>
  </g>
</svg>
